{"title":"Murder 3 (2013) PDVDRip XviD 5.1CH 1CD [Team Jaffa]","uid":8164490,"size":732255924,"categoryP":"video","categoryS":"movies","magnet":"?xt=urn:btih:1c7eca3e297b77372ee7b532c3bc9da1f58fb350&amp;dn=Murder+3+%282013%29+PDVDRip+XviD+5.1CH+1CD+%5BTeam+Jaffa%5D&amp;tr=udp%3A%2F%2Ftracker.openbittorrent.com%3A80&amp;tr=udp%3A%2F%2Fopen.demonii.com%3A1337&amp;tr=udp%3A%2F%2Ftracker.coppersurfer.tk%3A6969&amp;tr=udp%3A%2F%2Fexodus.desync.com%3A6969","seeders":1,"leechers":0,"uploader":"SJonam","files":1,"time":1361307706,"description":" &lt;a href=&quot;http://www.shotpix.com/images/13897044339522030617.png&quot; rel=&quot;nofollow&quot; target=&quot;_NEW&quot;&gt;http://www.shotpix.com/images/13897044339522030617.png&lt;/a&gt;\n &lt;a href=&quot;\nhttp://www.shotpix.com/images/61343961809162684215.png&quot; rel=&quot;nofollow&quot; target=&quot;_NEW&quot;&gt;\nhttp://www.shotpix.com/images/61343961809162684215.png&lt;/a&gt;\n &lt;a href=&quot;\nhttp://www.shotpix.com/images/80029491321060046406.png&quot; rel=&quot;nofollow&quot; target=&quot;_NEW&quot;&gt;\nhttp://www.shotpix.com/images/80029491321060046406.png&lt;/a&gt;\n &lt;a href=&quot;\nhttp://www.shotpix.com/images/03145436644829041842.png&quot; rel=&quot;nofollow&quot; target=&quot;_NEW&quot;&gt;\nhttp://www.shotpix.com/images/03145436644829041842.png&lt;/a&gt;\n &lt;a href=&quot;\nhttp://www.shotpix.com/images/96584576816381433850.png&quot; rel=&quot;nofollow&quot; target=&quot;_NEW&quot;&gt;\nhttp://www.shotpix.com/images/96584576816381433850.png&lt;/a&gt;\n &lt;a href=&quot;\nhttp://www.shotpix.com/images/33597227776055738133.png&quot; rel=&quot;nofollow&quot; target=&quot;_NEW&quot;&gt;\nhttp://www.shotpix.com/images/33597227776055738133.png&lt;/a&gt;\n\nGeneral\nFormat : AVI\nFormat/Info : Audio Video Interleave\nFile size : 698 MiB\nDuration : 1h 53mn\nOverall bit rate : 864 Kbps\n\nVideo\nID : 0\nFormat : MPEG-4 Visual\nFormat profile : Advanced Simple@L5\nFormat settings, BVOP : 2\nFormat settings, QPel : No\nFormat settings, GMC : No warppoints\nFormat settings, Matrix : Default (H.263)\nCodec ID : XVID\nCodec ID/Hint : XviD\nDuration : 1h 53mn\nBit rate : 728 Kbps\nWidth : 640 pixels\nHeight : 288 pixels\nDisplay aspect ratio : 2.222\nFrame rate : 25.000 fps\nColor space : YUV\nChroma subsampling : 4:2:0\nBit depth : 8 bits\nScan type : Progressive\nCompression mode : Lossy\nBits/(Pixel*Frame) : 0.158\nStream size : 588 MiB (84%)\nWriting library : XviD 1.2.1 (UTC 2008-12-04)\n\nAudio\nID : 1\nFormat : AC-3\nFormat/Info : Audio Coding 3\nMode extension : CM (complete main)\nFormat settings, Endianness : Big\nCodec ID : 2000\nDuration : 1h 53mn\nBit rate mode : Constant\nBit rate : 128 Kbps\nChannel(s) : 6 channels\nChannel positions : Front: L C R, Side: L R, LFE\nSampling rate : 48.0 KHz\nBit depth : 16 bits\nCompression mode : Lossy\nStream size : 103 MiB (15%)\nAlignment : Aligned on interleaves\nInterleave, duration : 64 ms (1.60 video frames)\nInterleave, preload duration : 192 ms\nTitle : audio","torrent":{"xt":"urn:btih:1c7eca3e297b77372ee7b532c3bc9da1f58fb350","amp;dn":"Murder+3+%282013%29+PDVDRip+XviD+5.1CH+1CD+%5BTeam+Jaffa%5D","amp;tr":["udp%3A%2F%2Ftracker.openbittorrent.com%3A80","udp%3A%2F%2Fopen.demonii.com%3A1337","udp%3A%2F%2Ftracker.coppersurfer.tk%3A6969","udp%3A%2F%2Fexodus.desync.com%3A6969"],"infoHash":"1c7eca3e297b77372ee7b532c3bc9da1f58fb350","infoHashBuffer":{"type":"Buffer","data":[28,126,202,62,41,123,119,55,46,231,181,50,195,188,157,161,245,143,179,80]},"announce":[],"urlList":[]}}